<svg width="41" height="41" viewBox="0 0 41 41" fill="none" xmlns="http://www.w3.org/2000/svg">
<path d="M20.4893 1.40002C9.99479 1.40002 1.49922 9.90002 1.49922 20.4C1.49922 30.8 9.99479 39.3 20.4893 39.3C30.8839 39.3 39.3795 30.8 39.3795 20.4C39.3795 9.90002 30.8839 1.40002 20.4893 1.40002ZM20.4893 40.8C9.19521 40.8 0 31.7 0 20.4C0 9.10002 9.19521 0 20.4893 0C31.6835 0 40.8787 9.10002 40.8787 20.4C40.8787 31.7 31.6835 40.8 20.4893 40.8Z" fill="#231F20"/>
<path fill-rule="evenodd" clip-rule="evenodd" d="M16.5914 33.0999H21.2889V22.1999H24.7871L25.4868 17.8H21.2889V14.4999C21.2889 13.1999 22.4884 12.4999 23.5878 12.4999H25.6867V8.89997L21.9886 8.69989C18.4905 8.49989 16.5914 11.1999 16.5914 14.4999V17.8H12.5935V22.1999H16.5914V33.0999Z" fill="#231F20"/>
</svg>
