<svg width="41" height="41" viewBox="0 0 41 41" fill="none" xmlns="http://www.w3.org/2000/svg">
<path d="M20.4893 1.40002C9.99479 1.40002 1.49922 9.90002 1.49922 20.4C1.49922 30.8 9.99479 39.3 20.4893 39.3C30.8839 39.3 39.3795 30.8 39.3795 20.4C39.3795 9.90002 30.8839 1.40002 20.4893 1.40002ZM20.4893 40.8C9.19521 40.8 0 31.7 0 20.4C0 9.10002 9.19521 0 20.4893 0C31.6835 0 40.8787 9.10002 40.8787 20.4C40.8787 31.7 31.6835 40.8 20.4893 40.8Z" fill="#231F20"/>
<path fill-rule="evenodd" clip-rule="evenodd" d="M15.1925 11H25.687C27.9858 11 29.9847 12.9 29.9847 15.3V25.6C29.9847 28 27.9858 29.9 25.687 29.9H15.1925C12.8936 29.9 10.9946 28 10.9946 25.6V15.3C10.9946 12.9 12.8936 11 15.1925 11ZM20.3897 16.3H20.4896C22.6885 16.3 24.5875 18.2 24.5875 20.4C24.5875 22.7 22.6885 24.6 20.4896 24.6H20.3897C18.1908 24.6 16.2919 22.7 16.2919 20.4C16.2919 18.2 18.1908 16.3 20.3897 16.3ZM20.3897 14.2H20.4896C23.8878 14.2 26.6865 17.1 26.6865 20.4C26.6865 23.9 23.8878 26.7 20.4896 26.7H20.3897C17.0914 26.7 14.2929 23.9 14.2929 20.4C14.2929 17.1 17.0914 14.2 20.3897 14.2ZM26.5864 13C27.2861 13 27.8858 13.6 27.8858 14.3C27.8858 15 27.2861 15.6 26.5864 15.6C25.8868 15.6 25.2872 15 25.2872 14.3C25.2872 13.6 25.8868 13 26.5864 13ZM15.1925 9H25.687C29.0852 9 31.8837 11.8 31.8837 15.2V25.7C31.8837 29.1 29.0852 31.9 25.687 31.9H15.1925C11.7942 31.9 8.99561 29.1 8.99561 25.7V15.2C8.99561 11.8 11.7942 9 15.1925 9Z" fill="#231F20"/>
</svg>
