<svg width="41" height="41" viewBox="0 0 41 41" fill="none" xmlns="http://www.w3.org/2000/svg">
<path d="M20.4893 1.40002C9.99479 1.40002 1.49922 9.90002 1.49922 20.4C1.49922 30.8 9.99479 39.3 20.4893 39.3C30.8839 39.3 39.3794 30.8 39.3794 20.4C39.3794 9.90002 30.8839 1.40002 20.4893 1.40002ZM20.4893 40.8C9.19521 40.8 0 31.7 0 20.4C0 9.10002 9.19521 0 20.4893 0C31.6835 0 40.8786 9.10002 40.8786 20.4C40.8786 31.7 31.6835 40.8 20.4893 40.8Z" fill="#231F20"/>
<path fill-rule="evenodd" clip-rule="evenodd" d="M16.891 16.9H20.789V18.7C21.5886 17.5 22.9879 16.7 24.4871 16.7H25.5865C27.9853 16.7 29.9843 18.8 29.9843 21.2V30H26.1862V22.9C26.0862 21.4 25.0868 20.3 23.5876 20.3C22.0883 20.3 20.789 21.4 20.789 22.9V30H16.891V16.9ZM12.5933 10.2C13.8926 10.2 14.9921 11.3 14.9921 12.6C14.9921 13.9 13.8926 14.9 12.5933 14.9C11.294 14.9 10.2944 13.9 10.2944 12.6C10.2944 11.3 11.294 10.2 12.5933 10.2ZM10.6942 16.9H14.5922V30H10.6942V16.9Z" fill="#231F20"/>
</svg>
