<svg width="41" height="41" viewBox="0 0 41 41" fill="none" xmlns="http://www.w3.org/2000/svg">
<path fill-rule="evenodd" clip-rule="evenodd" d="M24.6869 21.8001C24.2871 21.5001 23.5875 21.2 23.0878 21.5C22.688 21.6 22.3881 22.3 22.0883 22.6C21.9883 22.8 21.7884 22.8 21.5886 22.7C19.9894 22.1 18.7901 21 17.8905 19.6C17.6906 19.3 17.7906 19.2 17.8905 19C18.1904 18.6 18.4902 18.3001 18.5901 17.9001C18.6901 17.4001 18.4902 17 18.2903 16.6C18.0904 16.1 17.7906 15.4 17.3908 15.1C16.891 14.9 16.2914 15.0001 15.8916 15.3001C15.2919 15.9001 14.8921 16.8 14.8921 17.6C14.992 17.9 14.992 18.1001 14.992 18.4001C15.1919 18.9001 15.3918 19.5 15.6916 20C15.9914 20.3 16.1914 20.7 16.4912 21.1C17.2908 22.2 18.3902 23.2 19.5896 24C20.1893 24.4 20.8889 24.7001 21.5886 24.9001C22.2882 25.2001 22.9879 25.4001 23.7875 25.3001C24.687 25.1001 25.5865 24.6 25.8864 23.7C25.9863 23.5 26.0862 23.2001 25.9863 22.9001C25.8863 22.4001 25.1867 22.1001 24.6869 21.8001Z" fill="#231F20"/>
<path d="M20.4893 1.40002C9.99479 1.40002 1.49922 9.90002 1.49922 20.4C1.49922 30.8 9.99479 39.3 20.4893 39.3C30.8839 39.3 39.3795 30.8 39.3795 20.4C39.3795 9.90002 30.8839 1.40002 20.4893 1.40002ZM20.4893 40.8C9.19521 40.8 0 31.7 0 20.4C0 9.10002 9.19521 0 20.4893 0C31.6835 0 40.8787 9.10002 40.8787 20.4C40.8787 31.7 31.6835 40.8 20.4893 40.8Z" fill="#231F20"/>
<path fill-rule="evenodd" clip-rule="evenodd" d="M13.2929 29.1L14.8921 28.8L15.8915 28.6C17.2908 29.4 18.79 29.8 20.4891 29.8C25.6864 29.8 29.9842 25.5 29.9842 20.2C29.9842 15 25.6864 10.7 20.4891 10.7C15.1919 10.7 10.8942 15 10.8942 20.2C10.8942 22.1 11.4938 23.9 12.3934 25.4L12.2934 26.3L12.0935 28L11.8936 29.3L13.2929 29.1ZM20.4891 8.80005C26.7859 8.80005 31.8832 13.9 31.8832 20.2C31.8832 26.6 26.7859 31.7 20.4891 31.7C18.6901 31.7 17.0909 31.3 15.6916 30.6L9.59478 31.7L10.3944 25.6L10.2945 25.5C9.49491 23.9 8.99512 22.1 8.99512 20.2C8.99512 13.9 14.0925 8.80005 20.4891 8.80005Z" fill="#231F20"/>
</svg>
