<svg width="1011" height="351" viewBox="0 0 1011 351" fill="none" xmlns="http://www.w3.org/2000/svg">
<path d="M824.67 218.3C832.466 218.3 837.764 214.3 837.764 208V207.9C837.764 201.2 832.566 197.7 825.07 197.7H813.176V218.3H824.67ZM809.978 194.8H825.27C834.565 194.8 840.862 199.6 840.862 207.7V207.8C840.862 216.7 833.366 221.2 824.471 221.2H813.176V236.9H809.978V194.8Z" fill="white"/>
<path d="M886.338 216V215.9C886.338 205.5 878.742 196.9 868.348 196.9C857.953 196.9 850.457 205.3 850.457 215.7V215.9C850.457 226.3 858.053 234.8 868.448 234.8C878.842 234.8 886.338 226.4 886.338 216ZM847.259 216V215.9C847.259 204.3 855.654 194.1 868.448 194.1C881.241 194.1 889.537 204.3 889.537 215.7V215.9C889.537 227.4 881.041 237.6 868.348 237.6C855.554 237.6 847.259 227.5 847.259 216Z" fill="white"/>
<path d="M916.522 216.6C923.519 216.6 928.716 213 928.716 207V206.9C928.716 201.2 924.418 197.7 916.722 197.7H902.33V216.6H916.522ZM899.231 194.8H916.822C922.119 194.8 926.117 196.4 928.716 199C930.715 200.9 931.914 203.7 931.914 206.8V206.9C931.914 213.9 926.617 218 919.521 218.9L933.414 236.9H929.516L916.123 219.5H902.33V236.9H899.231V194.8Z" fill="white"/>
<path d="M951.404 197.7H936.712V194.8H969.195V197.7H954.503V236.9H951.404V197.7Z" fill="white"/>
<path d="M832.766 247.4H862.351V250.3H835.864V267.6H859.652V270.5H835.864V289.5H832.766V247.4Z" fill="white"/>
<path d="M906.828 268.6V268.5C906.828 258.1 899.332 249.5 888.837 249.5C878.442 249.5 871.046 258 871.046 268.4V268.5C871.046 278.9 878.642 287.4 889.037 287.4C899.432 287.4 906.828 279 906.828 268.6ZM867.748 268.6V268.5C867.748 256.9 876.244 246.7 889.037 246.7C901.73 246.7 910.126 256.9 910.126 268.4V268.5C910.126 280 901.63 290.3 888.837 290.3C876.144 290.3 867.748 280.1 867.748 268.6Z" fill="white"/>
<path d="M919.721 247.4H922.82V286.7H947.607V289.5H919.721V247.4Z" fill="white"/>
<path d="M955.203 247.4H958.301V289.5H955.203V247.4Z" fill="white"/>
<path d="M1007.18 268.6V268.5C1007.18 258.1 999.579 249.5 989.185 249.5C978.79 249.5 971.394 258 971.394 268.4V268.5C971.394 278.9 978.89 287.4 989.285 287.4C999.679 287.4 1007.18 279 1007.18 268.6ZM968.096 268.6V268.5C968.096 256.9 976.591 246.7 989.285 246.7C1002.08 246.7 1010.47 256.9 1010.47 268.4V268.5C1010.47 280 1001.98 290.3 989.185 290.3C976.491 290.3 968.096 280.1 968.096 268.6Z" fill="white"/>
<path d="M2.99854 2.19995H14.2927V102.3L111.342 2.19995H126.734L60.1688 69.3999L129.533 154.5H114.74L52.1729 77.5L14.2927 115.8V154.5H2.99854V2.19995Z" fill="#231F20"/>
<path d="M264.962 101.6L224.883 13.5L184.704 101.6H264.962ZM219.685 1.09998H230.58L301.443 154.5H289.049L269.759 111.9H179.906L160.616 154.5H148.822L219.685 1.09998Z" fill="#231F20"/>
<path d="M319.034 132.3L326.43 123.8C343.121 139.5 358.613 146.4 381.001 146.4C403.79 146.4 419.481 133.6 419.481 116.2V115.8C419.481 99.7 410.986 90.3 376.404 83.4C339.623 75.7 325.131 63.8 325.131 40.5V40.1C325.131 17.5 345.72 0 374.005 0C395.994 0 410.786 6.1 426.178 18.5L418.982 27.5C404.489 15.1 390.297 10.3 373.605 10.3C350.917 10.3 336.425 23.3 336.425 39V39.4C336.425 55.7 344.62 65.1 380.702 72.7C416.183 79.9 430.776 92.3 430.776 114.7V115.1C430.776 139.7 409.687 156.7 380.302 156.7C356.014 156.7 337.224 148.6 319.034 132.3Z" fill="#231F20"/>
<path d="M516.431 87.3C544.616 87.3 563.806 72.6999 563.806 49.8999V49.3999C563.806 25.2999 544.916 12.7 517.73 12.7H474.653V87.3H516.431ZM463.358 2.19995H518.53C552.012 2.19995 575.1 19.4 575.1 48.8V49.2C575.1 81.4 547.714 97.6999 515.731 97.6999H474.653V154.5H463.358V2.19995Z" fill="#231F20"/>
<path d="M690.241 101.6L650.261 13.5L609.982 101.6H690.241ZM645.064 1.09998H655.858L726.822 154.5H714.428L695.038 111.9H605.285L585.895 154.5H574.101L645.064 1.09998Z" fill="#231F20"/>
<path d="M816.075 81.1999C841.561 81.1999 860.452 68.0999 860.452 46.3999V45.8999C860.452 25.2999 844.56 12.7 816.774 12.7H764.801V81.1999H816.075ZM753.507 2.19995H817.374C836.364 2.19995 850.857 7.89995 860.252 17.2C867.448 24.4 871.746 34.3999 871.746 45.4999V45.8999C871.746 71.3999 852.656 86 827.169 89.5L877.443 154.5H863.05L814.576 91.3999H764.801V154.5H753.507V2.19995Z" fill="#231F20"/>
<path d="M894.634 132.3L902.03 123.8C918.822 139.5 934.214 146.4 956.602 146.4C979.49 146.4 995.082 133.6 995.082 116.2V115.8C995.082 99.7 986.586 90.3 952.104 83.4C915.324 75.7 900.731 63.8 900.731 40.5V40.1C900.731 17.5 921.42 0 949.706 0C971.594 0 986.387 6.1 1001.88 18.5L994.682 27.5C980.09 15.1 965.997 10.3 949.206 10.3C926.618 10.3 912.025 23.3 912.025 39V39.4C912.025 55.7 920.321 65.1 956.402 72.7C991.884 79.9 1006.38 92.3 1006.38 114.7V115.1C1006.38 139.7 985.287 156.7 956.002 156.7C931.615 156.7 912.925 148.6 894.634 132.3Z" fill="#231F20"/>
<path d="M0 271.7V271.3C0 228 33.6825 192.6 79.8584 192.6C106.944 192.6 123.935 200 139.627 213.4L118.538 238.9C106.944 229.1 96.1499 223.5 78.759 223.5C54.3717 223.5 34.9818 245 34.9818 270.9V271.3C34.9818 299.2 54.1718 319.6 81.1577 319.6C93.5513 319.6 104.146 316.6 112.641 310.5V288.7H78.9589V259.8H145.024V325.9C129.333 339.2 107.844 350.1 80.0583 350.1C32.583 350.1 0 317 0 271.7Z" fill="#231F20"/>
<path d="M243.573 269.1C260.064 269.1 269.26 260.7 269.26 247.6V247.2C269.26 232.6 259.465 225.4 242.873 225.4H209.691V269.1H243.573ZM176.208 195.2H245.772C265.062 195.2 279.854 200.4 290.049 210.6C298.744 219.3 303.142 230.9 303.142 245.4V245.9C303.142 270.4 289.849 285.9 270.559 293.1L307.739 347.4H268.56L235.977 298.7H209.691V347.4H176.208V195.2Z" fill="#231F20"/>
<path d="M448.167 271.7V271.3C448.167 245.2 429.077 223.5 402.091 223.5C375.105 223.5 356.414 244.8 356.414 270.9V271.3C356.414 297.4 375.604 319.2 402.59 319.2C429.476 319.2 448.167 297.9 448.167 271.7ZM321.433 271.7V271.3C321.433 228 355.615 192.6 402.59 192.6C449.466 192.6 483.248 227.6 483.248 270.9V271.3C483.248 314.6 449.066 350.1 402.091 350.1C355.115 350.1 321.433 315 321.433 271.7Z" fill="#231F20"/>
<path d="M498.241 322L581.997 224.5H500.839V195.2H625.075V220.6L541.318 318.1H625.075V347.4H498.241V322Z" fill="#231F20"/>
<path d="M742.113 283.7L721.924 234.3L701.634 283.7H742.113ZM706.932 194.1H737.715L802.981 347.4H768L754.107 313.3H689.74L675.848 347.4H641.666L706.932 194.1Z" fill="#231F20"/>
</svg>
