<svg width="201" height="97" viewBox="0 0 201 97" fill="none" xmlns="http://www.w3.org/2000/svg">
<path d="M14.6924 24.2C22.4883 24.2 27.7855 20.2 27.7855 13.9V13.7999C27.7855 7.09993 22.5883 3.59991 15.0922 3.59991H3.19835V24.2H14.6924ZM0 0.699951H15.292C24.5872 0.699951 30.8839 5.49991 30.8839 13.5999V13.7C30.8839 22.6 23.3879 27.0999 14.4925 27.0999H3.19835V42.7999H0V0.699951Z" fill="white"/>
<path d="M76.3604 21.9V21.8C76.3604 11.4 68.7643 2.79999 58.3698 2.79999C47.9752 2.79999 40.4792 11.2 40.4792 21.6V21.8C40.4792 32.2 48.0752 40.7 58.4698 40.7C68.8644 40.7 76.3604 32.3 76.3604 21.9ZM37.2808 21.9V21.8C37.2808 10.2 45.6765 0 58.4698 0C71.2631 0 79.5588 10.2 79.5588 21.6V21.8C79.5588 33.3 71.0631 43.5 58.3698 43.5C45.5764 43.5 37.2808 33.4 37.2808 21.9Z" fill="white"/>
<path d="M106.544 22.4999C113.541 22.4999 118.738 18.9 118.738 12.9V12.7999C118.738 7.09993 114.44 3.59991 106.744 3.59991H92.3518V22.4999H106.544ZM89.2534 0.699951H106.844C112.141 0.699951 116.139 2.29996 118.738 4.89996C120.737 6.79996 121.936 9.59995 121.936 12.7V12.7999C121.936 19.7999 116.639 23.8999 109.543 24.7999L123.436 42.7999H119.538L106.145 25.4H92.3518V42.7999H89.2534V0.699951Z" fill="white"/>
<path d="M141.426 3.59991H126.734V0.699951H159.217V3.59991H144.525V42.7999H141.426V3.59991Z" fill="white"/>
<path d="M22.7881 53.3H52.3727V56.2001H25.8864V73.5001H49.6741V76.4001H25.8864V95.4001H22.7881V53.3Z" fill="white"/>
<path d="M96.8496 74.5V74.4C96.8496 64 89.3535 55.4 78.859 55.4C68.4644 55.4 61.0684 63.9 61.0684 74.3V74.4C61.0684 84.8 68.6644 93.3 79.059 93.3C89.4536 93.3 96.8496 84.9 96.8496 74.5ZM57.77 74.5V74.4C57.77 62.8 66.2656 52.6 79.059 52.6C91.7524 52.6 100.148 62.8 100.148 74.3V74.4C100.148 85.9 91.6523 96.2 78.859 96.2C66.1656 96.2 57.77 86 57.77 74.5Z" fill="white"/>
<path d="M109.743 53.3H112.842V92.6H137.629V95.4001H109.743V53.3Z" fill="white"/>
<path d="M145.225 53.3H148.323V95.4001H145.225V53.3Z" fill="white"/>
<path d="M197.197 74.5V74.4C197.197 64 189.601 55.4 179.207 55.4C168.812 55.4 161.416 63.9 161.416 74.3V74.4C161.416 84.8 168.912 93.3 179.307 93.3C189.701 93.3 197.197 84.9 197.197 74.5ZM158.118 74.5V74.4C158.118 62.8 166.613 52.6 179.307 52.6C192.1 52.6 200.496 62.8 200.496 74.3V74.4C200.496 85.9 192 96.2 179.207 96.2C166.513 96.2 158.118 86 158.118 74.5Z" fill="white"/>
</svg>
