<svg width="25" height="645" viewBox="0 0 25 645" fill="none" xmlns="http://www.w3.org/2000/svg">
<path d="M0.399658 644.7V642H21.2888V628.9H23.7875V644.7H0.399658Z" fill="black"/>
<path d="M0.399658 624.6V607.7H2.79843V621.9H10.7943V609.2H13.1929V621.9H21.3887V607.5H23.7875V624.6H0.399658Z" fill="black"/>
<path d="M2.79843 596V603.9H0.399658V585.5H2.79843V593.4H23.7875V596H2.79843Z" fill="black"/>
<path d="M20.3891 582.9L18.3901 581.3C20.6889 578.9 21.6883 576.5 21.6883 573.3C21.6883 570.1 20.0893 568.1 17.7905 568.1H17.6904C15.4916 568.1 14.2923 569.2 13.2928 574.1C12.0934 579.5 10.2943 582 6.4963 582H6.39638C2.79825 582 0.0996094 578.8 0.0996094 574.3C0.0996094 570.9 0.99919 568.5 2.8982 566.1L4.99708 567.6C3.19802 569.8 2.39846 572 2.39846 574.4C2.39846 577.4 4.0975 579.4 6.19641 579.4H6.29646C8.49531 579.4 9.69469 578.2 10.7941 573C11.9935 567.8 13.8925 565.4 17.3907 565.4H17.4906C21.4885 565.4 24.0871 568.7 24.0871 573.4C24.0871 577.1 22.8878 580.1 20.3891 582.9Z" fill="black"/>
<path d="M12.1936 551H12.0937C5.49711 551 0 546 0 539.2C0 534.9 1.49917 532.4 3.69803 530.1L5.59706 531.9C3.798 533.9 2.39877 536 2.39877 539.2C2.39877 544.4 6.59656 548.3 11.9938 548.3H12.0937C17.4909 548.3 21.6887 544.4 21.6887 539.2C21.6887 536 20.4894 533.9 18.3904 531.7L20.0895 529.9C22.4883 532.3 24.1874 535.1 24.1874 539.3C24.1874 546 18.8901 551 12.1936 551Z" fill="black"/>
<path d="M12.2935 515.6C12.2935 512.2 10.4944 509.6 7.49594 509.6H7.39601C4.49752 509.6 2.79843 511.8 2.79843 515.6V522.8H12.2935V515.6ZM0.399658 525.5V515.4C0.399658 512.5 1.29912 510.2 2.69839 508.8C3.89776 507.6 5.49703 507 7.29609 507H7.39601C11.294 507 13.5927 509.6 14.1924 513.3L23.7875 506.1V509.4L14.6921 516.2V522.8H23.7875V525.5H0.399658Z" fill="black"/>
<path d="M0.399658 501.4V484.5H2.79843V498.8H10.7943V486H13.1929V498.8H21.3887V484.4H23.7875V501.4H0.399658Z" fill="black"/>
<path d="M15.1919 463.6L3.29819 468.9L15.1919 474.3V463.6ZM0.199707 470.1V467.7L23.7875 457V459.8L17.5907 462.6V475.3L23.7875 478.1V480.8L0.199707 470.1Z" fill="black"/>
<path d="M2.79843 449.9V457.8H0.399658V439.4H2.79843V447.2H23.7875V449.9H2.79843Z" fill="black"/>
<path d="M0.399658 435.1V418.1H2.79843V432.4H10.7943V419.7H13.1929V432.4H21.3887V418H23.7875V435.1H0.399658Z" fill="black"/>
<path d="M20.3891 404.2L18.3901 402.5C20.6889 400.1 21.6883 397.8 21.6883 394.5C21.6883 391.4 20.0893 389.3 17.7905 389.3H17.6904C15.4916 389.3 14.2923 390.5 13.2928 395.4C12.0934 400.8 10.2943 403.3 6.4963 403.3H6.39638C2.79825 403.3 0.0996094 400 0.0996094 395.6C0.0996094 392.1 0.99919 389.8 2.8982 387.3L4.99708 388.9C3.19802 391.1 2.39846 393.2 2.39846 395.6C2.39846 398.7 4.0975 400.6 6.19641 400.6H6.29646C8.49531 400.6 9.69469 399.4 10.7941 394.3C11.9935 389 13.8925 386.6 17.3907 386.6H17.4906C21.4885 386.6 24.0871 390 24.0871 394.6C24.0871 398.4 22.8878 401.4 20.3891 404.2Z" fill="black"/>
<path d="M12.1936 361.7H12.0937C6.79644 361.7 2.39877 365.6 2.39877 371C2.39877 376.3 6.69651 380.1 11.9938 380.1H12.0937C17.3909 380.1 21.6887 376.2 21.6887 370.9C21.6887 365.6 17.4908 361.7 12.1936 361.7ZM12.1936 382.9H12.0937C5.59706 382.9 0 378 0 370.9C0 363.8 5.59708 359 11.9938 359H12.0937C18.4903 359 24.1874 363.9 24.1874 371C24.1874 378.1 18.5903 382.9 12.1936 382.9Z" fill="black"/>
<path d="M0.399658 353.5V350.9L13.1929 342.4L0.399658 333.8V331.2H23.7875V333.8H4.79739L17.3908 342.3V342.5L4.89732 351H23.7875V353.5H0.399658Z" fill="black"/>
<path d="M0.399658 324.5V307.6H2.79843V321.9H10.7943V309.1H13.1929V321.9H21.3887V307.4H23.7875V324.5H0.399658Z" fill="black"/>
<path d="M2.79843 296V303.8H0.399658V285.4H2.79843V293.3H23.7875V296H2.79843Z" fill="black"/>
<path d="M0.399658 281.1V278.5H10.7943V265H0.399658V262.4H23.7875V265H13.293V278.5H23.7875V281.1H0.399658Z" fill="black"/>
<path d="M0.399658 255.6H23.7875V253H0.399658V255.6Z" fill="black"/>
<path d="M0.399658 246.3V243.8L19.0899 229.1H0.399658V226.5H23.7875V228.6L4.59742 243.7H23.7875V246.3H0.399658Z" fill="black"/>
<path d="M12.1936 221.1H12.0937C5.69701 221.1 0 216.4 0 209.4C0 205.4 1.0994 203 3.09836 200.6L5.09732 202.3C3.49815 204.1 2.39877 206.2 2.39877 209.5C2.39877 214.6 6.79646 218.3 11.9938 218.3H12.0937C17.6908 218.3 21.7887 214.8 21.7887 209.1C21.7887 206.4 20.7892 203.9 19.4898 202.3H13.6928V209.5H11.2942V199.8H20.5893C22.5882 202 24.1874 205.2 24.1874 209.2C24.1874 216.5 18.7902 221.1 12.1936 221.1Z" fill="black"/>
<path d="M2.79843 177.7V185.6H0.399658V167.2H2.79843V175.1H23.7875V177.7H2.79843Z" fill="black"/>
<path d="M12.1936 144.2H12.0937C6.79644 144.2 2.39877 148.1 2.39877 153.5C2.39877 158.8 6.69651 162.6 11.9938 162.6H12.0937C17.3909 162.6 21.6887 158.7 21.6887 153.4C21.6887 148 17.4908 144.2 12.1936 144.2ZM12.1936 165.3H12.0937C5.59706 165.3 0 160.5 0 153.4C0 146.3 5.59708 141.5 11.9938 141.5H12.0937C18.4903 141.5 24.1874 146.3 24.1874 153.5C24.1874 160.6 18.5903 165.3 12.1936 165.3Z" fill="black"/>
<path d="M12.1936 137.3H12.0937C5.69701 137.3 0 132.6 0 125.6C0 121.6 1.0994 119.2 3.09836 116.9L5.09732 118.6C3.49815 120.3 2.39877 122.4 2.39877 125.7C2.39877 130.9 6.79646 134.6 11.9938 134.6H12.0937C17.6908 134.6 21.7887 131 21.7887 125.3C21.7887 122.6 20.7892 120.2 19.4898 118.6H13.6928V125.7H11.2942V116H20.5893C22.5882 118.2 24.1874 121.4 24.1874 125.4C24.1874 132.8 18.7902 137.3 12.1936 137.3Z" fill="black"/>
<path d="M0.399658 110V93.1H2.79843V107.4H10.7943V94.6H13.1929V107.4H21.3887V92.9H23.7875V110H0.399658Z" fill="black"/>
<path d="M2.79843 81.4V89.3H0.399658V70.9H2.79843V78.8H23.7875V81.4H2.79843Z" fill="black"/>
<path d="M0.399658 66.6001V64.0001H10.7943V50.5001H0.399658V47.8H23.7875V50.5001H13.293V64.0001H23.7875V66.6001H0.399658Z" fill="black"/>
<path d="M0.399658 41.2V24.3H2.79843V38.6H10.7943V25.8H13.1929V38.6H21.3887V24.1H23.7875V41.2H0.399658Z" fill="black"/>
<path d="M12.2935 9.60001C12.2935 6.10001 10.4944 3.60001 7.49594 3.60001H7.39601C4.49752 3.60001 2.79843 5.8 2.79843 9.5V16.8H12.2935V9.60001ZM0.399658 19.4V9.29999C0.399658 6.39999 1.29912 4.19998 2.69839 2.69998C3.89776 1.49998 5.49703 0.899994 7.29609 0.899994H7.39601C11.294 0.899994 13.5927 3.59998 14.1924 7.19998L23.7875 0V3.29999L14.6921 10.1V16.8H23.7875V19.4H0.399658Z" fill="black"/>
</svg>
