<svg width="232" height="323" viewBox="0 0 232 323" fill="none" xmlns="http://www.w3.org/2000/svg">
<path d="M6.29677 319.2C6.29677 317.5 4.89742 316.1 3.09836 316.1C1.39925 316.1 0 317.5 0 319.2C0 320.9 1.39925 322.3 3.09836 322.3C4.89742 322.3 6.29677 320.9 6.29677 319.2Z" fill="#F3C02D"/>
<path d="M51.2735 319.2C51.2735 317.5 49.8743 316.1 48.1751 316.1C46.476 316.1 45.0767 317.5 45.0767 319.2C45.0767 320.9 46.476 322.3 48.1751 322.3C49.8743 322.3 51.2735 320.9 51.2735 319.2Z" fill="#CCCCCC"/>
<path d="M96.35 319.2C96.35 317.5 94.9507 316.1 93.2516 316.1C91.4526 316.1 90.0532 317.5 90.0532 319.2C90.0532 320.9 91.4526 322.3 93.2516 322.3C94.9507 322.3 96.35 320.9 96.35 319.2Z" fill="#F3C02D"/>
<path d="M141.427 319.2C141.427 317.5 140.027 316.1 138.228 316.1C136.529 316.1 135.13 317.5 135.13 319.2C135.13 320.9 136.529 322.3 138.228 322.3C140.027 322.3 141.427 320.9 141.427 319.2Z" fill="#F3C02D"/>
<path d="M186.403 319.2C186.403 317.5 185.004 316.1 183.305 316.1C181.606 316.1 180.207 317.5 180.207 319.2C180.207 320.9 181.606 322.3 183.305 322.3C185.004 322.3 186.403 320.9 186.403 319.2Z" fill="#F3C02D"/>
<path d="M231.48 319.2C231.48 317.5 230.081 316.1 228.381 316.1C226.582 316.1 225.183 317.5 225.183 319.2C225.183 320.9 226.582 322.3 228.381 322.3C230.081 322.3 231.48 320.9 231.48 319.2Z" fill="#F3C02D"/>
<path d="M6.29677 274.1C6.29677 272.3 4.89742 270.9 3.09836 270.9C1.39925 270.9 0 272.3 0 274.1C0 275.8 1.39925 277.2 3.09836 277.2C4.89742 277.2 6.29677 275.8 6.29677 274.1Z" fill="#F3C02D"/>
<path d="M51.2735 274.1C51.2735 272.3 49.8743 270.9 48.1751 270.9C46.476 270.9 45.0767 272.3 45.0767 274.1C45.0767 275.8 46.476 277.2 48.1751 277.2C49.8743 277.2 51.2735 275.8 51.2735 274.1Z" fill="#CCCCCC"/>
<path d="M96.35 274.1C96.35 272.3 94.9507 270.9 93.2516 270.9C91.4526 270.9 90.0532 272.3 90.0532 274.1C90.0532 275.8 91.4526 277.2 93.2516 277.2C94.9507 277.2 96.35 275.8 96.35 274.1Z" fill="#F3C02D"/>
<path d="M141.427 274.1C141.427 272.3 140.027 270.9 138.228 270.9C136.529 270.9 135.13 272.3 135.13 274.1C135.13 275.8 136.529 277.2 138.228 277.2C140.027 277.2 141.427 275.8 141.427 274.1Z" fill="#F3C02D"/>
<path d="M186.403 274.1C186.403 272.3 185.004 270.9 183.305 270.9C181.606 270.9 180.207 272.3 180.207 274.1C180.207 275.8 181.606 277.2 183.305 277.2C185.004 277.2 186.403 275.8 186.403 274.1Z" fill="#F3C02D"/>
<path d="M231.48 274.1C231.48 272.3 230.081 270.9 228.381 270.9C226.582 270.9 225.183 272.3 225.183 274.1C225.183 275.8 226.582 277.2 228.381 277.2C230.081 277.2 231.48 275.8 231.48 274.1Z" fill="#F3C02D"/>
<path d="M6.29677 228.9C6.29677 227.2 4.89742 225.8 3.09836 225.8C1.39925 225.8 0 227.2 0 228.9C0 230.6 1.39925 232 3.09836 232C4.89742 232 6.29677 230.6 6.29677 228.9Z" fill="#F3C02D"/>
<path d="M51.2735 228.9C51.2735 227.2 49.8743 225.8 48.1751 225.8C46.476 225.8 45.0767 227.2 45.0767 228.9C45.0767 230.6 46.476 232 48.1751 232C49.8743 232 51.2735 230.6 51.2735 228.9Z" fill="#CCCCCC"/>
<path d="M96.35 228.9C96.35 227.2 94.9507 225.8 93.2516 225.8C91.4526 225.8 90.0532 227.2 90.0532 228.9C90.0532 230.6 91.4526 232 93.2516 232C94.9507 232 96.35 230.6 96.35 228.9Z" fill="#F3C02D"/>
<path d="M141.427 228.9C141.427 227.2 140.027 225.8 138.228 225.8C136.529 225.8 135.13 227.2 135.13 228.9C135.13 230.6 136.529 232 138.228 232C140.027 232 141.427 230.6 141.427 228.9Z" fill="#F3C02D"/>
<path d="M186.403 228.9C186.403 227.2 185.004 225.8 183.305 225.8C181.606 225.8 180.207 227.2 180.207 228.9C180.207 230.6 181.606 232 183.305 232C185.004 232 186.403 230.6 186.403 228.9Z" fill="#F3C02D"/>
<path d="M231.48 228.9C231.48 227.2 230.081 225.8 228.381 225.8C226.582 225.8 225.183 227.2 225.183 228.9C225.183 230.6 226.582 232 228.381 232C230.081 232 231.48 230.6 231.48 228.9Z" fill="#F3C02D"/>
<path d="M6.29677 183.8C6.29677 182 4.89742 180.6 3.09836 180.6C1.39925 180.6 0 182 0 183.8C0 185.5 1.39925 186.9 3.09836 186.9C4.89742 186.9 6.29677 185.5 6.29677 183.8Z" fill="#F3C02D"/>
<path d="M51.2735 183.8C51.2735 182 49.8743 180.6 48.1751 180.6C46.476 180.6 45.0767 182 45.0767 183.8C45.0767 185.5 46.476 186.9 48.1751 186.9C49.8743 186.9 51.2735 185.5 51.2735 183.8Z" fill="#CCCCCC"/>
<path d="M96.35 183.8C96.35 182 94.9507 180.6 93.2516 180.6C91.4526 180.6 90.0532 182 90.0532 183.8C90.0532 185.5 91.4526 186.9 93.2516 186.9C94.9507 186.9 96.35 185.5 96.35 183.8Z" fill="#F3C02D"/>
<path d="M141.427 183.8C141.427 182 140.027 180.6 138.228 180.6C136.529 180.6 135.13 182 135.13 183.8C135.13 185.5 136.529 186.9 138.228 186.9C140.027 186.9 141.427 185.5 141.427 183.8Z" fill="#F3C02D"/>
<path d="M186.403 183.8C186.403 182 185.004 180.6 183.305 180.6C181.606 180.6 180.207 182 180.207 183.8C180.207 185.5 181.606 186.9 183.305 186.9C185.004 186.9 186.403 185.5 186.403 183.8Z" fill="#F3C02D"/>
<path d="M231.48 183.8C231.48 182 230.081 180.6 228.381 180.6C226.582 180.6 225.183 182 225.183 183.8C225.183 185.5 226.582 186.9 228.381 186.9C230.081 186.9 231.48 185.5 231.48 183.8Z" fill="#F3C02D"/>
<path d="M6.29677 138.6C6.29677 136.9 4.89742 135.5 3.09836 135.5C1.39925 135.5 0 136.9 0 138.6C0 140.3 1.39925 141.7 3.09836 141.7C4.89742 141.7 6.29677 140.3 6.29677 138.6Z" fill="#F3C02D"/>
<path d="M51.2735 138.6C51.2735 136.9 49.8743 135.5 48.1751 135.5C46.476 135.5 45.0767 136.9 45.0767 138.6C45.0767 140.3 46.476 141.7 48.1751 141.7C49.8743 141.7 51.2735 140.3 51.2735 138.6Z" fill="#CCCCCC"/>
<path d="M96.35 138.6C96.35 136.9 94.9507 135.5 93.2516 135.5C91.4526 135.5 90.0532 136.9 90.0532 138.6C90.0532 140.3 91.4526 141.7 93.2516 141.7C94.9507 141.7 96.35 140.3 96.35 138.6Z" fill="#F3C02D"/>
<path d="M141.427 138.6C141.427 136.9 140.027 135.5 138.228 135.5C136.529 135.5 135.13 136.9 135.13 138.6C135.13 140.3 136.529 141.7 138.228 141.7C140.027 141.7 141.427 140.3 141.427 138.6Z" fill="#F3C02D"/>
<path d="M186.403 138.6C186.403 136.9 185.004 135.5 183.305 135.5C181.606 135.5 180.207 136.9 180.207 138.6C180.207 140.3 181.606 141.7 183.305 141.7C185.004 141.7 186.403 140.3 186.403 138.6Z" fill="#F3C02D"/>
<path d="M231.48 138.6C231.48 136.9 230.081 135.5 228.381 135.5C226.582 135.5 225.183 136.9 225.183 138.6C225.183 140.3 226.582 141.7 228.381 141.7C230.081 141.7 231.48 140.3 231.48 138.6Z" fill="#F3C02D"/>
<path d="M6.29677 93.5C6.29677 91.7 4.89742 90.3 3.09836 90.3C1.39925 90.3 0 91.7 0 93.5C0 95.2 1.39925 96.6 3.09836 96.6C4.89742 96.6 6.29677 95.2 6.29677 93.5Z" fill="#F3C02D"/>
<path d="M51.2735 93.5C51.2735 91.7 49.8743 90.3 48.1751 90.3C46.476 90.3 45.0767 91.7 45.0767 93.5C45.0767 95.2 46.476 96.6 48.1751 96.6C49.8743 96.6 51.2735 95.2 51.2735 93.5Z" fill="#CCCCCC"/>
<path d="M96.35 93.5C96.35 91.7 94.9507 90.3 93.2516 90.3C91.4526 90.3 90.0532 91.7 90.0532 93.5C90.0532 95.2 91.4526 96.6 93.2516 96.6C94.9507 96.6 96.35 95.2 96.35 93.5Z" fill="#F3C02D"/>
<path d="M141.427 93.5C141.427 91.7 140.027 90.3 138.228 90.3C136.529 90.3 135.13 91.7 135.13 93.5C135.13 95.2 136.529 96.6 138.228 96.6C140.027 96.6 141.427 95.2 141.427 93.5Z" fill="#F3C02D"/>
<path d="M186.403 93.5C186.403 91.7 185.004 90.3 183.305 90.3C181.606 90.3 180.207 91.7 180.207 93.5C180.207 95.2 181.606 96.6 183.305 96.6C185.004 96.6 186.403 95.2 186.403 93.5Z" fill="#F3C02D"/>
<path d="M231.48 93.5C231.48 91.7 230.081 90.3 228.381 90.3C226.582 90.3 225.183 91.7 225.183 93.5C225.183 95.2 226.582 96.6 228.381 96.6C230.081 96.6 231.48 95.2 231.48 93.5Z" fill="#F3C02D"/>
<path d="M6.29677 48.3C6.29677 46.6 4.89742 45.2 3.09836 45.2C1.39925 45.2 0 46.6 0 48.3C0 50 1.39925 51.4 3.09836 51.4C4.89742 51.4 6.29677 50 6.29677 48.3Z" fill="#F3C02D"/>
<path d="M51.2735 48.3C51.2735 46.6 49.8743 45.2 48.1751 45.2C46.476 45.2 45.0767 46.6 45.0767 48.3C45.0767 50 46.476 51.4 48.1751 51.4C49.8743 51.4 51.2735 50 51.2735 48.3Z" fill="#CCCCCC"/>
<path d="M96.35 48.3C96.35 46.6 94.9507 45.2 93.2516 45.2C91.4526 45.2 90.0532 46.6 90.0532 48.3C90.0532 50 91.4526 51.4 93.2516 51.4C94.9507 51.4 96.35 50 96.35 48.3Z" fill="#F3C02D"/>
<path d="M141.427 48.3C141.427 46.6 140.027 45.2 138.228 45.2C136.529 45.2 135.13 46.6 135.13 48.3C135.13 50 136.529 51.4 138.228 51.4C140.027 51.4 141.427 50 141.427 48.3Z" fill="#F3C02D"/>
<path d="M186.403 48.3C186.403 46.6 185.004 45.2 183.305 45.2C181.606 45.2 180.207 46.6 180.207 48.3C180.207 50 181.606 51.4 183.305 51.4C185.004 51.4 186.403 50 186.403 48.3Z" fill="#F3C02D"/>
<path d="M231.48 48.3C231.48 46.6 230.081 45.2 228.381 45.2C226.582 45.2 225.183 46.6 225.183 48.3C225.183 50 226.582 51.4 228.381 51.4C230.081 51.4 231.48 50 231.48 48.3Z" fill="#F3C02D"/>
<path d="M6.29677 3.2C6.29677 1.4 4.89742 0 3.09836 0C1.39925 0 0 1.4 0 3.2C0 4.9 1.39925 6.3 3.09836 6.3C4.89742 6.3 6.29677 4.9 6.29677 3.2Z" fill="#F3C02D"/>
<path d="M51.2735 3.2C51.2735 1.4 49.8743 0 48.1751 0C46.476 0 45.0767 1.4 45.0767 3.2C45.0767 4.9 46.476 6.3 48.1751 6.3C49.8743 6.3 51.2735 4.9 51.2735 3.2Z" fill="#CCCCCC"/>
<path d="M96.35 3.2C96.35 1.4 94.9507 0 93.2516 0C91.4526 0 90.0532 1.4 90.0532 3.2C90.0532 4.9 91.4526 6.3 93.2516 6.3C94.9507 6.3 96.35 4.9 96.35 3.2Z" fill="#F3C02D"/>
<path d="M141.427 3.2C141.427 1.4 140.027 0 138.228 0C136.529 0 135.13 1.4 135.13 3.2C135.13 4.9 136.529 6.3 138.228 6.3C140.027 6.3 141.427 4.9 141.427 3.2Z" fill="#F3C02D"/>
<path d="M186.403 3.2C186.403 1.4 185.004 0 183.305 0C181.606 0 180.207 1.4 180.207 3.2C180.207 4.9 181.606 6.3 183.305 6.3C185.004 6.3 186.403 4.9 186.403 3.2Z" fill="#F3C02D"/>
<path d="M231.48 3.2C231.48 1.4 230.081 0 228.381 0C226.582 0 225.183 1.4 225.183 3.2C225.183 4.9 226.582 6.3 228.381 6.3C230.081 6.3 231.48 4.9 231.48 3.2Z" fill="#F3C02D"/>
</svg>
