<svg width="30" height="18" viewBox="0 0 30 18" fill="none" xmlns="http://www.w3.org/2000/svg">
<path d="M1.30002 17.2998H27.8C28.6 17.2998 29.2 16.6998 29.2 15.8998V15.6998C29.2 14.8998 28.6 14.2998 27.8 14.2998H1.30002C0.600018 14.2998 0 14.8998 0 15.6998V15.8998C0 16.6998 0.600018 17.2998 1.30002 17.2998Z" fill="#231F20"/>
<path d="M1.30002 10.0997H27.8C28.6 10.0997 29.2 9.49971 29.2 8.79971V8.4997C29.2 7.7997 28.6 7.19971 27.8 7.19971H1.30002C0.600018 7.19971 0 7.7997 0 8.4997V8.79971C0 9.49971 0.600018 10.0997 1.30002 10.0997Z" fill="#231F20"/>
<path d="M1.30002 3H27.8C28.6 3 29.2 2.3 29.2 1.6V1.3C29.2 0.600003 28.6 0 27.8 0H1.30002C0.600018 0 0 0.600003 0 1.3V1.6C0 2.3 0.600018 3 1.30002 3Z" fill="#231F20"/>
</svg>
