<?xml version="1.0" encoding="UTF-8"?>
<svg id="Layer_1" data-name="Layer 1" xmlns="http://www.w3.org/2000/svg" viewBox="0 0 448.9 16.8">
  <defs>
    <style>
      .cls-1 {
        fill: #ededee;
      }
    </style>
  </defs>
  <path class="cls-1" d="M0,.3h1.8v14.6h9.2v1.7H0V.3Z"/>
  <path class="cls-1" d="M14,.3h11.8v1.7h-9.9v5.6h8.9v1.7h-8.9v5.7h10.1v1.7h-11.9V.3Z"/>
  <path class="cls-1" d="M33.9,2h-5.5V.3h12.8v1.7h-5.5v14.6h-1.8V2Z"/>
  <path class="cls-1" d="M43,14.2l1.1-1.3c1.7,1.6,3.3,2.3,5.6,2.3s3.6-1.2,3.6-2.8h0c0-1.6-.8-2.4-4.2-3.1-3.7-.8-5.5-2-5.5-4.7h0C43.6,2,45.9,0,49,0s4,.7,5.7,2l-1.1,1.4c-1.5-1.2-3-1.8-4.7-1.8s-3.5,1.1-3.5,2.6h0c0,1.6.8,2.5,4.4,3.2,3.6.8,5.3,2.1,5.3,4.6h0c0,2.8-2.3,4.7-5.6,4.7s-4.7-.8-6.7-2.6Z"/>
  <path class="cls-1" d="M65.2,8.5h0c0-4.7,3.5-8.5,8.2-8.5s4.7,1,6.4,2.6l-1.3,1.4c-1.4-1.3-2.9-2.2-5.1-2.2-3.6,0-6.3,2.9-6.3,6.7h0c0,3.8,2.7,6.8,6.3,6.8s3.7-.9,5.3-2.4l1.2,1.2c-1.7,1.7-3.6,2.9-6.5,2.9-4.7,0-8.2-3.7-8.2-8.4Z"/>
  <path class="cls-1" d="M83,.3h7c2,0,3.6.6,4.6,1.6s1.3,1.9,1.3,3.2h0c0,2.7-1.9,4.4-4.4,4.8l5,6.7h-2.3l-4.7-6.3h-4.7v6.3h-1.8V.3ZM89.8,8.6c2.4,0,4.2-1.3,4.2-3.4h0c0-2.1-1.5-3.3-4.2-3.3h-5v6.6h5Z"/>
  <path class="cls-1" d="M99.7.3h11.8v1.7h-9.9v5.6h8.9v1.7h-8.9v5.7h10.1v1.7h-11.9V.3Z"/>
  <path class="cls-1" d="M121.5.2h1.7l7.4,16.4h-2l-1.9-4.3h-8.9l-1.9,4.3h-1.9L121.5.2ZM126.1,10.6l-3.7-8.3-3.7,8.3h7.4Z"/>
  <path class="cls-1" d="M135.6,2h-5.5V.3h12.8v1.7h-5.5v14.6h-1.8V2Z"/>
  <path class="cls-1" d="M146,.3h11.8v1.7h-9.9v5.6h8.9v1.7h-8.9v5.7h10.1v1.7h-11.9V.3Z"/>
  <path class="cls-1" d="M167.5,14.2l1.1-1.3c1.7,1.6,3.3,2.3,5.6,2.3s3.6-1.2,3.6-2.8h0c0-1.6-.8-2.4-4.2-3.1-3.7-.8-5.5-2-5.5-4.7h0c0-2.6,2.3-4.5,5.4-4.5s4,.7,5.7,2l-1.1,1.4c-1.5-1.2-3-1.8-4.7-1.8s-3.5,1.1-3.5,2.6h0c0,1.6.8,2.5,4.4,3.2,3.6.8,5.3,2.1,5.3,4.6h0c0,2.8-2.3,4.7-5.6,4.7s-4.7-.8-6.7-2.6Z"/>
  <path class="cls-1" d="M182.3,8.5h0c0-4.5,3.4-8.5,8.3-8.5s8.3,3.9,8.3,8.4h0c0,4.5-3.4,8.5-8.3,8.5s-8.3-3.9-8.3-8.4ZM197,8.5h0c0-3.7-2.7-6.8-6.4-6.8s-6.4,3-6.4,6.7h0c0,3.7,2.7,6.8,6.4,6.8s6.4-3,6.4-6.7Z"/>
  <path class="cls-1" d="M202.7.3h1.9l5.9,8.9,5.9-8.9h1.9v16.3h-1.8V3.4l-5.9,8.7h0l-5.9-8.7v13.2h-1.8V.3Z"/>
  <path class="cls-1" d="M222.9.3h11.8v1.7h-9.9v5.6h8.9v1.7h-8.9v5.7h10.1v1.7h-11.9V.3Z"/>
  <path class="cls-1" d="M242.8,2h-5.5V.3h12.8v1.7h-5.5v14.6h-1.8V2Z"/>
  <path class="cls-1" d="M253.1.3h1.8v7.2h9.4V.3h1.8v16.3h-1.8v-7.3h-9.4v7.3h-1.8V.3Z"/>
  <path class="cls-1" d="M270.9.3h1.8v16.3h-1.8V.3Z"/>
  <path class="cls-1" d="M277.4.3h1.7l10.3,13.1V.3h1.8v16.3h-1.5l-10.5-13.4v13.4h-1.8V.3Z"/>
  <path class="cls-1" d="M295,8.5h0c0-4.5,3.3-8.5,8.2-8.5s4.4.8,6.1,2.2l-1.2,1.4c-1.2-1.1-2.7-1.9-5-1.9-3.6,0-6.2,3-6.2,6.7h0c0,3.9,2.5,6.8,6.4,6.8s3.6-.7,4.7-1.6v-4h-5v-1.7h6.7v6.5c-1.5,1.4-3.8,2.5-6.5,2.5-5.1,0-8.3-3.7-8.3-8.4Z"/>
  <path class="cls-1" d="M325.1,2h-5.5V.3h12.8v1.7h-5.5v14.6h-1.8V2Z"/>
  <path class="cls-1" d="M333.8,8.5h0c0-4.5,3.4-8.5,8.3-8.5s8.3,3.9,8.3,8.4h0c0,4.5-3.4,8.5-8.3,8.5s-8.3-3.9-8.3-8.4ZM348.5,8.5h0c0-3.7-2.7-6.8-6.4-6.8s-6.4,3-6.4,6.7h0c0,3.7,2.7,6.8,6.4,6.8s6.4-3,6.4-6.7Z"/>
  <path class="cls-1" d="M353.3,8.5h0c0-4.5,3.3-8.5,8.2-8.5s4.4.8,6.1,2.2l-1.2,1.4c-1.2-1.1-2.7-1.9-5-1.9-3.6,0-6.2,3-6.2,6.7h0c0,3.9,2.5,6.8,6.4,6.8s3.6-.7,4.7-1.6v-4h-5v-1.7h6.7v6.5c-1.5,1.4-3.8,2.5-6.5,2.5-5.1,0-8.3-3.7-8.3-8.4Z"/>
  <path class="cls-1" d="M372.3.3h11.8v1.7h-9.9v5.6h8.9v1.7h-8.9v5.7h10.1v1.7h-11.9V.3Z"/>
  <path class="cls-1" d="M392.2,2h-5.5V.3h12.8v1.7h-5.5v14.6h-1.8V2Z"/>
  <path class="cls-1" d="M402.5.3h1.8v7.2h9.4V.3h1.8v16.3h-1.8v-7.3h-9.4v7.3h-1.8V.3Z"/>
  <path class="cls-1" d="M420.2.3h11.8v1.7h-9.9v5.6h8.9v1.7h-8.9v5.7h10.1v1.7h-11.9V.3Z"/>
  <path class="cls-1" d="M435.4.3h7c2,0,3.6.6,4.6,1.6s1.3,1.9,1.3,3.2h0c0,2.7-1.9,4.4-4.4,4.8l5,6.7h-2.3l-4.7-6.3h-4.7v6.3h-1.8V.3ZM442.3,8.6c2.4,0,4.2-1.3,4.2-3.4h0c0-2.1-1.5-3.3-4.2-3.3h-5v6.6h5Z"/>
</svg>