<?xml version="1.0" encoding="UTF-8"?>
<svg id="Layer_1" data-name="Layer 1" xmlns="http://www.w3.org/2000/svg" viewBox="0 0 24.2 644.2">
  <path d="M.4,644.2v-2.6h20.9v-13.2h2.4v15.8H.4Z"/>
  <path d="M.4,624.1v-16.9h2.4v14.3h8v-12.8h2.4v12.8h8.2v-14.4h2.4v17.1H.4Z"/>
  <path d="M2.8,595.6v7.9H.4v-18.4h2.4v7.9h20.9v2.6H2.8Z"/>
  <path d="M20.4,582.5l-1.9-1.6c2.2-2.4,3.3-4.8,3.3-8s-1.7-5.2-4-5.2h0c-2.2,0-3.4,1.2-4.4,6.1-1.2,5.4-2.9,7.8-6.7,7.8h0c-3.6,0-6.4-3.2-6.4-7.7s1-5.8,2.9-8.2l2,1.5c-1.8,2.2-2.5,4.3-2.5,6.7s1.6,5,3.8,5h0c2.2,0,3.5-1.2,4.5-6.3,1.2-5.2,3-7.6,6.6-7.6h0c4,0,6.6,3.3,6.6,8s-1.2,6.7-3.7,9.5Z"/>
  <path d="M12.2,550.6h0c-6.6,0-12.1-5-12.1-11.8s1.5-6.8,3.7-9.1l1.9,1.8c-1.9,2-3.2,4.1-3.2,7.3,0,5.2,4.2,9,9.6,9h0c5.4,0,9.6-3.9,9.6-9s-1.2-5.3-3.4-7.5l1.7-1.7c2.5,2.4,4.1,5.1,4.1,9.3,0,6.7-5.3,11.7-12,11.7Z"/>
  <path d="M.4,525.1v-10.1c0-2.9.9-5.2,2.3-6.6s2.7-1.8,4.6-1.8h0c3.9,0,6.2,2.7,6.8,6.3l9.5-7.2v3.2l-9.1,6.8v6.7h9.1v2.6H.4ZM12.3,515.2c0-3.5-1.8-6-4.8-6h0c-2.9,0-4.6,2.2-4.6,6v7.2h9.5v-7.2Z"/>
  <path d="M.4,501v-16.9h2.4v14.3h8v-12.8h2.4v12.8h8.2v-14.4h2.4v17.1H.4Z"/>
  <path d="M.2,469.8v-2.5l23.5-10.7v2.8l-6.2,2.7v12.7l6.2,2.8v2.7L.2,469.8ZM15.2,463.2l-11.9,5.3,11.9,5.3v-10.7Z"/>
  <path d="M2.8,449.5v7.9H.4v-18.4h2.4v7.9h20.9v2.6H2.8Z"/>
  <path d="M.4,434.7v-16.9h2.4v14.3h8v-12.8h2.4v12.8h8.2v-14.4h2.4v17.1H.4Z"/>
  <path d="M20.4,403.9l-1.9-1.6c2.2-2.4,3.3-4.8,3.3-8s-1.7-5.2-4-5.2h0c-2.2,0-3.4,1.2-4.4,6.1-1.2,5.4-2.9,7.8-6.7,7.8h0c-3.6,0-6.4-3.2-6.4-7.7s1-5.8,2.9-8.2l2,1.5c-1.8,2.2-2.5,4.3-2.5,6.7s1.6,5,3.8,5h0c2.2,0,3.5-1.2,4.5-6.3,1.2-5.2,3-7.6,6.6-7.6h0c4,0,6.6,3.3,6.6,8s-1.2,6.7-3.7,9.5Z"/>
  <path d="M12.2,382.5h0c-6.4,0-12.1-4.8-12.1-12s5.6-11.9,12-11.9h0c6.4,0,12.1,4.8,12.1,12s-5.6,11.9-12,11.9ZM12.2,361.4h0c-5.3,0-9.7,3.9-9.7,9.2s4.3,9.1,9.6,9.1h0c5.3,0,9.6-3.9,9.6-9.2s-4.3-9.1-9.6-9.1Z"/>
  <path d="M.4,353.3v-2.7l12.8-8.5-12.8-8.5v-2.7h23.4v2.6H4.8l12.5,8.5h0c0,.1-12.5,8.6-12.5,8.6h18.9v2.6H.4Z"/>
  <path d="M.4,324.2v-16.9h2.4v14.3h8v-12.8h2.4v12.8h8.2v-14.4h2.4v17.1H.4Z"/>
  <path d="M2.8,295.7v7.9H.4v-18.4h2.4v7.9h20.9v2.6H2.8Z"/>
  <path d="M.4,280.9v-2.6h10.4v-13.5H.4v-2.6h23.4v2.6h-10.5v13.5h10.5v2.6H.4Z"/>
  <path d="M.4,255.4v-2.6h23.4v2.6H.4Z"/>
  <path d="M.4,246.1v-2.5l18.7-14.7H.4v-2.6h23.4v2.1l-19.2,15.1h19.2v2.6H.4Z"/>
  <path d="M12.2,220.9h0c-6.4,0-12.1-4.7-12.1-11.7s1.1-6.4,3.1-8.7l2,1.7c-1.6,1.8-2.7,3.8-2.7,7.1,0,5.2,4.4,8.9,9.6,8.9h0c5.6,0,9.7-3.6,9.7-9.2s-1-5.1-2.3-6.7h-5.8v7.1h-2.4v-9.6h9.3c2,2.2,3.6,5.4,3.6,9.4,0,7.3-5.3,11.9-12,11.9Z"/>
  <path d="M2.8,177.6v7.9H.4v-18.4h2.4v7.9h20.9v2.6H2.8Z"/>
  <path d="M12.2,165.2h0c-6.4,0-12.1-4.8-12.1-12s5.6-11.9,12-11.9h0c6.4,0,12.1,4.8,12.1,12s-5.6,11.9-12,11.9ZM12.2,144.1h0c-5.3,0-9.7,3.9-9.7,9.2s4.3,9.1,9.6,9.1h0c5.3,0,9.6-3.9,9.6-9.2s-4.3-9.1-9.6-9.1Z"/>
  <path d="M12.2,137.2h0c-6.4,0-12.1-4.7-12.1-11.7s1.1-6.4,3.1-8.7l2,1.7c-1.6,1.8-2.7,3.8-2.7,7.1,0,5.2,4.4,8.9,9.6,8.9h0c5.6,0,9.7-3.6,9.7-9.2s-1-5.1-2.3-6.7h-5.8v7.1h-2.4v-9.7h9.3c2,2.2,3.6,5.4,3.6,9.4,0,7.3-5.3,11.9-12,11.9Z"/>
  <path d="M.4,109.9v-16.9h2.4v14.3h8v-12.8h2.4v12.8h8.2v-14.4h2.4v17.1H.4Z"/>
  <path d="M2.8,81.3v7.9H.4v-18.4h2.4v7.9h20.9v2.6H2.8Z"/>
  <path d="M.4,66.5v-2.6h10.4v-13.5H.4v-2.6h23.4v2.6h-10.5v13.5h10.5v2.6H.4Z"/>
  <path d="M.4,41.1v-16.9h2.4v14.3h8v-12.8h2.4v12.8h8.2v-14.4h2.4v17.1H.4Z"/>
  <path d="M.4,19.3v-10.1c0-2.9.9-5.2,2.3-6.6,1.2-1.2,2.7-1.8,4.6-1.8h0c3.9,0,6.2,2.7,6.8,6.3L23.8,0v3.2l-9.1,6.8v6.7h9.1v2.6H.4ZM12.3,9.5c0-3.5-1.8-6-4.8-6h0c-2.9,0-4.6,2.2-4.6,6v7.2h9.5v-7.2Z"/>
</svg>