<?xml version="1.0" encoding="UTF-8"?>
<svg id="Layer_1" data-name="Layer 1" xmlns="http://www.w3.org/2000/svg" viewBox="0 0 11.8 314.3">
  <path d="M.2,314.3v-1.3h10.2v-6.4h1.2v7.7H.2Z"/>
  <path d="M.2,304.5v-8.2h1.2v7h3.9v-6.2h1.2v6.2h4v-7h1.2v8.3H.2Z"/>
  <path d="M1.4,290.6v3.8H.2v-9h1.2v3.8h10.2v1.3H1.4Z"/>
  <path d="M9.9,284.2l-.9-.8c1.1-1.2,1.6-2.3,1.6-3.9s-.8-2.5-1.9-2.5h0c-1.1,0-1.6.6-2.2,3-.6,2.6-1.4,3.8-3.3,3.8h0c-1.8,0-3.1-1.6-3.1-3.7s.5-2.8,1.4-4l1,.7c-.9,1.1-1.2,2.1-1.2,3.3s.8,2.4,1.8,2.4h0c1.1,0,1.7-.6,2.2-3.1.6-2.5,1.5-3.7,3.2-3.7h0c2,0,3.2,1.6,3.2,3.9s-.6,3.3-1.8,4.7Z"/>
  <path d="M5.9,268.6h0c-3.2,0-5.9-2.4-5.9-5.8s.7-3.3,1.8-4.4l.9.9c-.9,1-1.6,2-1.6,3.6,0,2.5,2.1,4.4,4.7,4.4h0c2.6,0,4.7-1.9,4.7-4.4s-.6-2.6-1.6-3.7l.8-.8c1.2,1.2,2,2.5,2,4.6,0,3.3-2.6,5.7-5.9,5.7Z"/>
  <path d="M.2,256.2v-4.9c0-1.4.4-2.5,1.1-3.2s1.3-.9,2.2-.9h0c1.9,0,3,1.3,3.3,3.1l4.7-3.5v1.6l-4.4,3.3v3.3h4.4v1.3H.2ZM6,251.4c0-1.7-.9-2.9-2.3-2.9h0c-1.4,0-2.2,1.1-2.2,2.9v3.5h4.6v-3.5Z"/>
  <path d="M.2,244.5v-8.2h1.2v7h3.9v-6.2h1.2v6.2h4v-7h1.2v8.3H.2Z"/>
  <path d="M.1,229.2v-1.2l11.5-5.2v1.4l-3,1.3v6.2l3,1.4v1.3L.1,229.2ZM7.4,226l-5.8,2.6,5.8,2.6v-5.2Z"/>
  <path d="M1.4,219.3v3.8H.2v-9h1.2v3.8h10.2v1.3H1.4Z"/>
  <path d="M.2,212.1v-8.2h1.2v7h3.9v-6.2h1.2v6.2h4v-7h1.2v8.3H.2Z"/>
  <path d="M9.9,197l-.9-.8c1.1-1.2,1.6-2.3,1.6-3.9s-.8-2.5-1.9-2.5h0c-1.1,0-1.6.6-2.2,3-.6,2.6-1.4,3.8-3.3,3.8h0c-1.8,0-3.1-1.6-3.1-3.7s.5-2.8,1.4-4l1,.7c-.9,1.1-1.2,2.1-1.2,3.3s.8,2.4,1.8,2.4h0c1.1,0,1.7-.6,2.2-3.1.6-2.5,1.5-3.7,3.2-3.7h0c2,0,3.2,1.6,3.2,3.9s-.6,3.3-1.8,4.7Z"/>
  <path d="M5.9,186.6h0c-3.1,0-5.9-2.4-5.9-5.8s2.7-5.8,5.9-5.8h0c3.1,0,5.9,2.4,5.9,5.8s-2.7,5.8-5.9,5.8ZM5.9,176.4h0c-2.6,0-4.7,1.9-4.7,4.5s2.1,4.5,4.7,4.5h0c2.6,0,4.7-1.9,4.7-4.5s-2.1-4.5-4.7-4.5Z"/>
  <path d="M.2,172.4v-1.3l6.2-4.2-6.2-4.2v-1.3h11.4v1.3H2.4l6.1,4.2h0c0,0-6.1,4.2-6.1,4.2h9.2v1.3H.2Z"/>
  <path d="M.2,158.2v-8.2h1.2v7h3.9v-6.2h1.2v6.2h4v-7h1.2v8.3H.2Z"/>
  <path d="M1.4,144.3v3.8H.2v-9h1.2v3.8h10.2v1.3H1.4Z"/>
  <path d="M.2,137v-1.3h5.1v-6.6H.2v-1.3h11.4v1.3h-5.1v6.6h5.1v1.3H.2Z"/>
  <path d="M.2,124.6v-1.3h11.4v1.3H.2Z"/>
  <path d="M.2,120.1v-1.2l9.1-7.2H.2v-1.3h11.4v1l-9.4,7.4h9.4v1.3H.2Z"/>
  <path d="M5.9,107.8h0c-3.1,0-5.9-2.3-5.9-5.7s.6-3.1,1.5-4.3l1,.8c-.8.9-1.3,1.9-1.3,3.5,0,2.5,2.1,4.3,4.7,4.3h0c2.7,0,4.7-1.7,4.7-4.5s-.5-2.5-1.1-3.3h-2.8v3.5h-1.2v-4.7h4.5c1,1.1,1.7,2.6,1.7,4.6,0,3.6-2.6,5.8-5.9,5.8Z"/>
  <path d="M1.4,86.6v3.8H.2v-9h1.2v3.8h10.2v1.3H1.4Z"/>
  <path d="M5.9,80.6h0c-3.1,0-5.9-2.4-5.9-5.8s2.7-5.8,5.9-5.8h0c3.1,0,5.9,2.4,5.9,5.8s-2.7,5.8-5.9,5.8ZM5.9,70.3h0c-2.6,0-4.7,1.9-4.7,4.5s2.1,4.5,4.7,4.5h0c2.6,0,4.7-1.9,4.7-4.5s-2.1-4.5-4.7-4.5Z"/>
  <path d="M5.9,66.9h0c-3.1,0-5.9-2.3-5.9-5.7s.6-3.1,1.5-4.3l1,.8c-.8.9-1.3,1.9-1.3,3.5,0,2.5,2.1,4.3,4.7,4.3h0c2.7,0,4.7-1.7,4.7-4.5s-.5-2.5-1.1-3.3h-2.8v3.5h-1.2v-4.7h4.5c1,1.1,1.7,2.6,1.7,4.6,0,3.6-2.6,5.8-5.9,5.8Z"/>
  <path d="M.2,53.6v-8.2h1.2v7h3.9v-6.2h1.2v6.2h4v-7h1.2v8.3H.2Z"/>
  <path d="M1.4,39.7v3.8H.2v-9h1.2v3.8h10.2v1.3H1.4Z"/>
  <path d="M.2,32.5v-1.3h5.1v-6.6H.2v-1.3h11.4v1.3h-5.1v6.6h5.1v1.3H.2Z"/>
  <path d="M.2,20.1v-8.2h1.2v7h3.9v-6.2h1.2v6.2h4v-7h1.2v8.3H.2Z"/>
  <path d="M.2,9.4v-4.9C.2,3.1.6,2,1.3,1.3S2.7.4,3.6.4h0c1.9,0,3,1.3,3.3,3.1L11.6,0v1.6l-4.4,3.3v3.3h4.4v1.3H.2ZM6,4.6c0-1.7-.9-2.9-2.3-2.9h0c-1.4,0-2.2,1.1-2.2,2.9v3.5h4.6v-3.5Z"/>
</svg>