<?xml version="1.0" encoding="UTF-8"?>
<svg id="Layer_1" data-name="Layer 1" xmlns="http://www.w3.org/2000/svg" viewBox="0 0 35.4 19.8">
  <defs>
    <style>
      .cls-1 {
        fill: #ededee;
      }
    </style>
  </defs>
  <g>
    <path class="cls-1" d="M.5,12.2c0,0,.6,0,.6,0,0,0,.2,0,.2,0,0,0,.1,0,.1,0h.2s.3,0,.3,0c0,0,0-.3,0-.8s.2-1.2.1-1.9,0-1,0-1.4,0-.6,0-.9,0-.6,0-.9c0,0,0,0,0,0,.2.4.4.7.6,1.1.3.7.6,1.2,1,1.8s.7,1,.8,1.4.3.5.5.7c0,0,0,0,0,0l.7.8c.5,0,1.3-.2,1.5-.4,0,0,0,0,0,0,0,0,.4-.3.9-.4s.9-.5.9-.4c.2,0,.4,0,.6,0,.2,0,.4.3.5.6.7-.2,1.2-.3,1.7-.6s.4-.2.6-.2c.9-.1,1.3-.4,1.4-.4,0,0,0,0,0,0,.2,0,.2-.3.5-.5,0,0,0,0,0,0,0,.3,0,.5,0,.8,0,.7,0,1.1-.1,1.5,0,0,0,0,0,0,0,0,.1.1.2,0,.1,0,.5,0,.5,0,0,0,0,0,0,0h.3c0-.1,0-.1,0-.1h.5c0-.2.2-1,.2-1,0,0,0-.6.2-1.4s.1-.5.1-.8.1-.9.2-1.4c0,0,0,0,0,0,.1.3.2.6.3.8s.2.6.3.8c.4.7.6,1.4.8,1.8,0,0,0,0,0,0,.1,1.3,1.4.8,1.5.5.1-.3.2-.6.4-1s.3-.7.4-1.1.2-.6.3-.9c0-.4.4-.8.4-1.3s0-.3.1-.4c0,0,0,0,0,0,0,.2,0,.5.1.7s.1.5.1.8c0,.4.2.7.2,1s.2.7.2,1c.1.7.4,1.3.7,1.8,0,0,0,0,.1,0,0,0,.7,0,.7,0,0,0,.2,0,.2,0h.4s-.2-1.2-.2-1.2c0,0-.1-.5-.2-1.3s-.2-1-.1-1.6,0-.4,0-.5c0-.4,0-.8,0-1.2s0-.8,0-1.2,0-.4,0-.6c0-.8,0-1.3-.1-1.6-.3-.6-1.7-.5-2.3-.1,0,0,0,0,0,0,0,0,0,.2,0,.3,0,0,0,0,0,0-.1.2-.3.6-.5,1s-.2.4-.3.6c-.2.5-.5,1.1-.7,1.7s-.4,1-.6,1.6c0,0,0,0,0,0-.1-.4-.2-.9-.4-1.5s-.1-.5-.2-.8c-.2-.6-.3-1.2-.5-1.9s-.1-.4-.2-.7c-.2-.6-1-.8-1.8-.6,0,0,0,0,0,0-.5-.1-1,0-1.1,0,0,0,0,0,0,0,0,.1,0,.2,0,.4h0c0,.2,0,.4,0,.6,0,.4,0,.8,0,1.3s-.1,1,0,1.6,0,.3,0,.4c0,.6,0,1.2,0,1.8,0,0,0,0,0,0-.7,0-1.5,0-2.2.3s-1,.1-1.5.4-.9.3-1.3.4c0,0,0,0,0,0,0-.2,0-.5.1-.9s0-.5,0-.7c0,0,0,0,0,0,.2,0,.5-.1.7-.2.4-.1.7-.2.8-.2,0,0,0,0,0,0,0,0,.5-.2.9-.2s1-.2,1-.2c0,0,0-.3,0-.3v-.4s0-.2,0-.2v-.2c0,0,0,0,0,0v-.2c0,0,0,0,0,0,0,0,0-.2.1-.3,0,0,0,0,0,0-.4,0-1,0-1.7,0s-.6,0-.9,0-.6,0-.9.1c0,0,0,0,0,0,0-.3,0-.7,0-1,0-.1,0-.2,0-.3,0,0,0,0,0,0,.4,0,.8-.1,1.2-.2s.4-.1.6-.1c.5,0,.9-.2.9-.2,0,0,0,0,0,0,0,0,1.2-.1,1.3,0v-.8c0,0,0-.3,0-.3,0,0,0-.1,0-.1,0,0,0-.2,0-.3,0,0,0,0,0,0-.5,0-1.7.1-2.9,0s-.7,0-1.1,0-1,0-1.4.1c0,0,0,0,0,0-.5,0-1,.1-1.1.2,0,0,0,0,0,0,0,.2,0,.7.2,1.3s.2,1.8.1,2.7,0,.4,0,.6c0,.4.1.8,0,1.2s0,.4,0,.5c0,.4,0,.9,0,1.2,0,0,0,0,0,0-.1,0-.2,0-.3.1,0,0-.1.1-.2.2,0-.3,0-.8,0-1.5s0-1.3,0-2.1c0-.8-.1-1.7,0-2.6s0-.4,0-.6c0-.3,0-.7,0-1,0,0,0,0,0,0h-.7c0,0,0,0,0,0h-.2s0,0,0,0c0,0-.3,0-.3,0h-.2c0,.2-.2.6-.2,1.1s-.1.6-.1,1c0,.6-.2,1.2-.1,1.8s0,1.3-.1,2c0,0,0,0,0,0-.2-.5-.5-.9-.8-1.6s-.4-1.2-.8-1.8-.2-.4-.2-.6c-.2-.5-.4-.8-.5-1.3-.2-.9-1.4-.9-2.2-.6,0,0,0,0,0,0-.3,0-.5,0-.6.1,0,0,0,0,0,0,0,.2,0,.5.1.9,0,.6,0,1.4,0,2.3s0,.6,0,.9c0,.7,0,1.4,0,2.1s0,1.3,0,1.8c0,.8,0,1.3,0,1.5,0,0,.2,0,.2,0Z"/>
    <path class="cls-1" d="M25.5,11.7h.7c0,0,.1-.6.1-1.9s0-.4,0-.6c0-.7,0-1.6,0-2.4s0-.6,0-.9,0-.3,0-.4c0-.3,0-.7,0-1,0-2.4-1.6-2.2-2.3-2.1-.1,0-.2.2-.2.2,0,.2.2.6.2,1.1s0,.4,0,.6c.1.7.1,1.5.1,2.3,0,.4,0,.9,0,1.3s0,.7,0,1.1c0,1.5,0,2.5.1,2.7h.5c0,0,.1,0,.1,0,0,0,.3,0,.4,0Z"/>
    <path class="cls-1" d="M23.1,1.6c.2,0,.6,0,1.2-.1s1,0,1.4,0,.4,0,.6,0c.6,0,1,0,1.1,0,0,0,0,0,0-.1,0,0-.3-.7-.3-.7v-.2c0,0,0-.2,0-.2,0,0-.7,0-1.5,0s-.5,0-.8,0-.6,0-.9,0c-1.1-.1-1,.9-1,1.4,0,.1,0,.2,0,.2Z"/>
    <path class="cls-1" d="M33.5,2.4c-.3,0-.7.2-1.3.2s-1.4,0-2.5,0-.4,0-.6,0c-.5,0-1.1,0-1.7,0,0,0,0,0,0,0,0,0,0,.8-.1.9,0,0,0,0,0,0,0,0,0,.2,0,.3,0,0,0,0,0,0l.2.3h0c0,.1.2.2.2.3.4.1.8.2,1.4.2s.7,0,1.2,0,1,0,1.6,0c0,0,0,0,0,0-.2.1-.4.2-.6.5s-.5.5-.8.7-.7.7-1.1,1-.8.7-1.2,1-.5.4-.7.5c-.4.3-.4,1.3-.6,2.1s.1.1.1.1h.2c.3-.2.4-.2.5-.2,0,0,.2.3.2.3,0,.3,0,.7.1,1.1.3,0,.8,0,1.1,0s.4-.1.6-.1c.9,0,1.9,0,2.8,0s.9,0,1.3,0c.8,0,1.5,0,1.6,0,0,0-.1-.8-.1-.8,0,0,0,0,0,0v-.2s0,0,0,0v-.2c.1,0,.1,0,.1,0l-.2-.5-.4-.3s-.4,0-1.1,0-1,0-1.5,0-1.1,0-1.6,0-.8,0-1.1,0c0,0,0,0,0,0,.4-.3.9-.6,1.2-1s.5-.5.9-.8c.5-.4,1-.8,1.4-1.3s.9-.9,1.3-1.3c0,0,0,0,0,0,.6-.1.8-.4.8-.9,0-.6-.1-1.5-.4-1.9,0,0-1.2,0-1.1,0Z"/>
  </g>
  <g>
    <path class="cls-1" d="M25.1,18.4c-.1,0-.3-.2-.4-.3-.5-.2-1-.3-1.7-.4-.7,0-1.5-.1-2.3-.1,0,0-4.5,0-9.1,1.1-.2,0-.3,0-.4.2-.1,0-.2.2-.3.3-.1.2,0,.4,0,.5,0,.1.2.2.3.2s.1,0,.2,0c.5-.3,1.3-.6,2.1-.8,1.3-.3,3.2-.6,5.8-.8.9,0,1.9-.1,2.7,0,.8,0,1.5.2,2,.4.2,0,.4.1.5.2.2.1.5,0,.6,0,0,0,0-.1,0-.2Z"/>
    <path class="cls-1" d="M27.4,16.4c-.4.3-.9.5-1.6.5s-.6,0-.9-.1c-.8-.2-1.3-.6-1.5-1.2-.1-.3-.2-.5-.2-.8h0c0-.3,0-.5-.1-.7,0-.2,0-.4-.1-.7,0-.3-.1-.5-.4-.5-.3,0-.4.2-.4.4,0,0,0,0,0,0,0,0,0,0,0,.1,0,0,0,0,0,0-.2.5-.3,1-.7,1.5h0c0,.1-.1.2-.2.2h0c0,0,0-.2,0-.3h0c0-.4,0-.7,0-1v-1.4c0-.1,0-.3-.2-.5,0-.1-.2-.2-.3-.1-.1,0-.2.1-.2.3,0,0,0,.2,0,.2.1.9.3,1.8-.4,2.4h0c0,0,0,0,0,0,0,0,0,0,0,0,0,0,0,0,0,0h0c0-.3,0-.5,0-.7,0-.7-.5-1-1-1.1-.1,0-.3,0-.4,0-.5,0-.8.2-1.3.6,0,0,0,.1-.1.2,0,.2,0,.3,0,.4,0,0,0,0,.1,0,0,0,.1,0,.2,0,0,0,0,0,0,0,.2-.2.4-.3.7-.4.1,0,.3,0,.4,0,.2,0,.3,0,.5.2.2.2.3.5.3,1,0,0,0,0,0,0,0,0,0,.2,0,.2h0s0,0,0,0c-.4-.3-.8-.5-1.1-.5s-.6,0-.8.3c-.3.2-.4.5-.3.8,0,.3.3.4.6.5.4,0,.8,0,1.3,0,0,0,0,0,0,0h0s0,0,0,0h0s0,0,0,0c0,0,0,0,0,0h0c0,.1,0,.2,0,.3,0,.2,0,.2.2.2s0,0,0,0c.2,0,.3-.4.3-.5,0-.3.2-.4.4-.6.1-.1.2-.2.3-.4h0s0,.1,0,.1c0,.2,0,.3,0,.4,0,.3.2.4.4.5.2,0,.4,0,.6-.2.1-.2.3-.4.4-.6.2-.3.3-.7.5-1.3h0c0-.1,0-.1,0-.1,0,0,0,0,0,0,0,0,0,0,0,0h0s0,.1,0,.2c0,0,0,.1,0,.2,0,.5.2,1,.4,1.6.3.8,1.4,1.7,2.9,1.7s1.4-.2,1.9-.6c0,0,0,0,.1-.1,0,0,0-.2,0-.3,0-.1-.2-.1-.4,0ZM18.9,15.4s0,0-.1,0c-.3,0-.7,0-.9,0h0s-.3,0-.4-.1c0-.2.1-.2.3-.3.1,0,.2,0,.4,0,.3,0,.5,0,.6.2,0,0,0,.1,0,.1Z"/>
    <path class="cls-1" d="M24.3,12.8s0,0,0,0c.3,0,.7,0,1,0s.4,0,.6,0c0,0,0,0,0,0,0,0,0,0,.1,0s.1,0,.2-.1c0,0,0-.2,0-.2,0,0,0,0-.1-.1-.1,0-.8,0-1.3,0s-.2,0-.2,0h0c-.1,0-.3,0-.4,0h0c-.1,0-.2.2-.2.3,0,0,0,.2.2.2Z"/>
    <path class="cls-1" d="M14.6,14.9c.1,0,.7.2.9.3h0c.2,0,.4.1.5.2h0c.1,0,.2,0,.2.2,0,.2-.5.3-.7.3,0,0-.1,0-.2,0s-.2,0-.3,0h0s0,0,0,0c-.1,0-.2,0-.2.2,0,.3.2.4.4.4,0,0,0,0,.2,0s.1,0,.2,0c.3,0,.5,0,.7-.2.2-.1.6-.3.6-.8,0-.5-.4-.6-.6-.7-.1,0-1.1-.3-1.5-.6,0,0-.1,0-.1-.1,0,0,0-.2,0-.3.1-.3.7-.5,1.1-.6,0,0,0,0,0,0,.3,0,.4,0,.6.2.1.1.2.2.3.2h0c0,0,.1,0,.2-.1.1-.2.1-.4,0-.6,0-.1-.4-.3-1-.3s-.1,0-.2,0c-.5,0-.9.3-1.3.7h0c-.2.3-.3.6-.3.9,0,.3.3.5.6.6Z"/>
    <path class="cls-1" d="M32,14.8h0s0,0,0,0c-.2,0-.4-.1-.6-.2h0c-.1,0-.7-.2-.9-.3,0,0-.1,0-.1-.1,0,0,0-.1,0-.2.1-.3.7-.5,1.1-.5.3,0,.5,0,.6.2.1.1.2.2.3.2h0c0,0,.1,0,.2,0,.1-.1.1-.3,0-.5-.1-.2-.6-.3-1.1-.3-.5,0-1,.2-1.4.7-.2.3-.3.6-.3.8,0,.3.3.5.6.6.1,0,.8.2.9.3h0c.2,0,.3.1.5.2h0c.1,0,.2.1.2.2,0,.1,0,.2-.2.3-.1,0-.3,0-.6,0-.9,0-2.2-.4-3.3-1h0s0,0,0,0c.7-.2,1.1-.4,1.5-.8.2-.3.4-.5.4-.8,0-.2,0-.3-.3-.3-.2,0-.3,0-.3.2-.2.6-.6,1-1.3,1.2-.1,0-.2,0-.3,0s0,0,0,0c0,0,0-.1,0-.3,0-.2,0-.3,0-.5,0-.3,0-1.7,0-2.1,0-.2,0-.3-.1-.5,0-.1-.2-.2-.4-.1-.1,0-.2.2-.2.3.1.6,0,2.1,0,2.1,0,.6-.2,1-.5,1.4h0s0,0,0,0c0,0,0-.2,0-.3,0-.7-.2-1.1-.5-1.3-.3-.2-.8-.2-1.5,0-.2,0-.5.2-.7.4,0,0-.2.2-.2.2-.1.2-.1.3,0,.4,0,0,0,0,.1,0,0,0,.1,0,.2-.1,0,0,0,0,0,0,.4-.3.8-.5,1.3-.5.5,0,.7.1.8.6,0,.2,0,.5,0,.9h0s0,0,0,0c-.2-.3-.5-.4-.9-.5,0,0-.1,0-.2,0-.3,0-.6,0-.8.3-.3.2-.4.5-.3.7,0,.3.2.4.6.5.2,0,.3,0,.5,0,.2,0,.5,0,.8-.1,0,0,.1,0,.2,0,0,0,0,.1,0,.2h0c0,.1,0,.2.2.2.1,0,.3,0,.3-.2,0-.6.3-.8.5-1,0,0,.3-.3.3-.3h0s0,0,0,0c0,0,0,.1,0,.2h0c0,.3,0,.5.1.8,0,.2.2.3.4.2.2,0,.2-.2.1-.3h0c0-.1,0-.3,0-.4h0s0,0,0,0c0,0,0,0,0,0h0s0,0,0,0c1.8.8,3,.9,3.5.9s.5,0,.6,0c.4-.1.6-.4.6-.8,0-.4-.3-.5-.6-.6ZM25.6,15.4s0,0-.1,0c-.2,0-.8,0-.9,0h0c-.2,0-.3,0-.3-.1,0-.2,0-.2.3-.3,0,0,.2,0,.4,0,.3,0,.5,0,.6.2,0,0,0,.1,0,.1Z"/>
    <path class="cls-1" d="M11.1,16h0c.2.2.4.3.5.3h0c.2,0,.4-.1.5-.3.3-.4.6-.9.8-1.6h0c0,0,0-.1,0-.2,0-.3.2-.5.1-.8,0-.3-.2-.3-.3-.4,0,0,0,0,0,0-.1,0-.2.1-.2.3,0,.9-.3,1.5-.7,2.1,0,.1-.1.2-.2.2h0c0,0-.1,0-.2-.1-.4-.6-.5-1.1-.5-1.6,0,0,0,0,0,0h0c0-.2,0-.4-.2-.5,0,0,0,0,0,0-.3,0-.3.2-.3.4,0,0,0,.2,0,.3,0,.3,0,.5-.2.7-.3.4-.7.7-1.3.8-.2,0-.3,0-.5,0-.2,0-.3,0-.5,0,0,0-.2-.1-.2-.2h0s0,0,0,0c.9-.1,1.9-.5,2.2-1,.1-.2,0-.4,0-.7-.2-.3-.4-.5-.7-.5-.5,0-1,.2-1.4.6-.3.3-.6,1-.6,1.1h0s0,0,0,0c0,0,0,0,0,0h0s0,0,0,0c-.2,0-.2,0-.2.2,0,0,0,0,0,.1,0,.1.3.2.4.2,0,0,0,0,0,0h0c0,.1.1.3.2.4.2.2.5.4.9.4,0,0,0,0,.1,0,.9,0,1.6-.3,2.1-1.1h0s0,0,0,0c0,0,.1.3.2.4,0,.2.2.3.3.5ZM9,13.6s0,0,0,0c0,0,.1,0,.2,0,0,0,.2.2.2.3,0,.5-.9.7-1.6.8h0s0,0,0,0c0-.2.4-1,1.2-1.1Z"/>
    <path class="cls-1" d="M6.6,13.4s0,0,0,0c1.1-.2,2.1-.6,3.1-1.2.2-.1.2-.3.1-.4-.1-.2-.4-.3-.8-.2h0c-1.5,1-3,1.5-4.6,1.5-.4,0-.9,0-1.3-.1h0c0,0-.2,0-.3.1,0,0,0,.2,0,.3,0,0,0,.1.2.1,1,.1,1.9.1,2.9,0v.8c0,0,.1.3.1.3,0,.5,0,1.2,0,1.9h0c0,.2,0,.4,0,.6,0,.2,0,.4.1.4,0,0,.1,0,.2,0s0,0,0,0c.1,0,.2-.1.2-.2.1-.2.1-.5.1-.7,0-1,0-1.9-.2-3h0Z"/>
  </g>
</svg>