<?xml version="1.0" encoding="UTF-8"?>
<svg id="Layer_1" data-name="Layer 1" xmlns="http://www.w3.org/2000/svg" viewBox="0 0 97.9 17.4">
  <defs>
    <style>
      .cls-1 {
        fill: #f3c02d;
      }
    </style>
  </defs>
  <rect class="cls-1" y="7.5" width="97.9" height="2.4"/>
  <g>
    <path d="M9.7.3h1.4l5.3,15L21.3.3h1l4.9,15L32.4.3h1.3l-6.1,16.9h-1l-4.9-14.6-4.9,14.6h-1L9.7.3Z"/>
    <path d="M35.7,8.8h0C35.7,4.1,39.1,0,44.2,0s8.4,4.1,8.4,8.6h0c0,4.7-3.4,8.7-8.5,8.7s-8.4-4.1-8.4-8.6ZM51.3,8.8h0c0-4.2-3-7.6-7.2-7.6s-7.1,3.4-7.1,7.5h0c0,4.2,3,7.6,7.2,7.6s7.1-3.4,7.1-7.5Z"/>
    <path d="M56.9.3h7.1c2.1,0,3.7.6,4.7,1.7s1.3,1.9,1.3,3.1h0c0,2.9-2.1,4.5-4.9,4.8l5.5,7.2h-1.6l-5.4-7h-5.5v7h-1.2V.3ZM63.8,9c2.8,0,4.9-1.4,4.9-3.8h0c0-2.3-1.8-3.7-4.8-3.7h-5.7v7.6h5.7Z"/>
    <path d="M74.3.3h1.2v11L86.2.3h1.7l-7.3,7.4,7.7,9.4h-1.6l-6.9-8.5-4.2,4.2v4.3h-1.2V.3Z"/>
  </g>
</svg>