<?xml version="1.0" encoding="UTF-8"?>
<svg id="Layer_1" data-name="Layer 1" xmlns="http://www.w3.org/2000/svg" viewBox="0 0 137.3 17.4">
  <path d="M9.9,8.8h0C9.9,4,13.5,0,18.3,0s4.8,1.1,6.5,2.7l-.9.9c-1.5-1.4-3.1-2.5-5.7-2.5-4,0-7.1,3.3-7.1,7.5h0c0,4.3,3.1,7.6,7.1,7.6s4.1-.9,5.8-2.6l.8.8c-1.8,1.7-3.7,2.9-6.7,2.9-4.8,0-8.4-3.8-8.4-8.6Z"/>
  <path d="M27.3,8.8h0C27.3,4.1,30.6,0,35.7,0s8.4,4.1,8.4,8.6h0c0,4.7-3.4,8.7-8.5,8.7s-8.4-4.1-8.4-8.6ZM42.9,8.8h0c0-4.2-3-7.6-7.2-7.6s-7.1,3.4-7.1,7.5h0c0,4.2,3,7.6,7.2,7.6s7.1-3.4,7.1-7.5Z"/>
  <path d="M48.4.3h1.2l11.6,14.6V.3h1.2v16.8h-.9l-11.8-14.9v14.9h-1.2V.3Z"/>
  <path d="M71.7,1.5h-5.9V.3h13v1.2h-5.9v15.6h-1.2V1.5Z"/>
  <path d="M86.4.2h1.2l7.8,16.9h-1.4l-2.1-4.7h-9.9l-2.1,4.7h-1.3L86.4.2ZM91.4,11.3l-4.4-9.7-4.4,9.7h8.9Z"/>
  <path d="M97.1,8.8h0C97.1,4,100.6,0,105.5,0s4.8,1.1,6.5,2.7l-.9.9c-1.5-1.4-3.1-2.5-5.7-2.5-4,0-7.1,3.3-7.1,7.5h0c0,4.3,3.1,7.6,7.1,7.6s4.1-.9,5.8-2.6l.8.8c-1.8,1.7-3.7,2.9-6.7,2.9-4.8,0-8.4-3.8-8.4-8.6Z"/>
  <path d="M120.2,1.5h-5.9V.3h13v1.2h-5.9v15.6h-1.2V1.5Z"/>
</svg>