<?xml version="1.0" encoding="UTF-8"?>
<svg id="Layer_1" data-name="Layer 1" xmlns="http://www.w3.org/2000/svg" viewBox="0 0 105.6 17.4">
  <path d="M16.8.2h1.2l7.8,16.9h-1.4l-2.1-4.7h-9.9l-2.1,4.7h-1.3L16.8.2ZM21.8,11.3L17.4,1.6l-4.4,9.7h8.9Z"/>
  <path d="M29.2.3h6.9c1.9,0,3.4.6,4.4,1.5.7.7,1.1,1.6,1.1,2.6h0c0,2.4-1.5,3.5-2.9,4,2,.5,3.8,1.7,3.8,4h0c0,2.9-2.4,4.6-6,4.6h-7.3V.3ZM40.3,4.6c0-1.8-1.5-3.1-4.2-3.1h-5.7v6.6h5.5c2.5,0,4.3-1.2,4.3-3.5h0ZM41.3,12.5c0-2.1-1.8-3.3-5.1-3.3h-5.7v6.7h6.1c2.9,0,4.7-1.3,4.7-3.4h0Z"/>
  <path d="M45.6,8.8h0C45.6,4.1,49,0,54.1,0s8.4,4.1,8.4,8.6h0c0,4.7-3.4,8.7-8.5,8.7s-8.4-4.1-8.4-8.6ZM61.2,8.8h0c0-4.2-3-7.6-7.2-7.6s-7.1,3.4-7.1,7.5h0c0,4.2,3,7.6,7.2,7.6s7.1-3.4,7.1-7.5Z"/>
  <path d="M66.5,10.1V.3h1.2v9.7c0,4,2.1,6.2,5.7,6.2s5.6-2.1,5.6-6.1V.3h1.2v9.7c0,4.8-2.8,7.4-6.9,7.4s-6.9-2.5-6.9-7.2Z"/>
  <path d="M89.5,1.5h-5.9V.3h13v1.2h-5.9v15.6h-1.2V1.5Z"/>
</svg>