<?xml version="1.0" encoding="UTF-8"?>
<svg id="Layer_1" data-name="Layer 1" xmlns="http://www.w3.org/2000/svg" viewBox="0 0 92.9 17.4">
  <defs>
    <style>
      .cls-1 {
        fill: #231f20;
      }

      .cls-2 {
        fill: #f3c02d;
      }
    </style>
  </defs>
  <rect class="cls-2" y="7.5" width="92.9" height="2.4"/>
  <g>
    <path class="cls-1" d="M10,.3h5.6c5.3,0,9,3.6,9,8.4h0c0,4.8-3.7,8.5-9,8.5h-5.6V.3ZM11.3,1.5v14.5h4.4c4.7,0,7.7-3.2,7.7-7.2h0c0-4-3-7.3-7.7-7.3h-4.4Z"/>
    <path class="cls-1" d="M34,.2h1.2l7.8,17h-1.4l-2.1-4.7h-9.9l-2.1,4.7h-1.3L34,.2ZM39.1,11.4l-4.4-9.7-4.5,9.7h8.9Z"/>
    <path class="cls-1" d="M46.5.3h7.1c2.1,0,3.7.6,4.7,1.7.8.8,1.3,1.9,1.3,3.1h0c0,2.9-2.1,4.5-4.9,4.9l5.6,7.2h-1.6l-5.4-7h-5.5v7h-1.3V.3ZM53.5,9.1c2.8,0,4.9-1.4,4.9-3.9h0c0-2.3-1.8-3.7-4.8-3.7h-5.8v7.6h5.7Z"/>
    <path class="cls-1" d="M63.9.3h7c1.9,0,3.4.6,4.4,1.5.7.7,1.1,1.6,1.1,2.6h0c0,2.4-1.5,3.5-2.9,4,2,.5,3.8,1.7,3.8,4h0c0,2.9-2.4,4.6-6,4.6h-7.3V.3ZM75.1,4.6c0-1.9-1.5-3.1-4.2-3.1h-5.7v6.6h5.6c2.5,0,4.3-1.2,4.3-3.5h0ZM76,12.6c0-2.1-1.8-3.3-5.1-3.3h-5.7v6.8h6.1c2.9,0,4.7-1.3,4.7-3.4h0Z"/>
    <path class="cls-1" d="M81.6.3h1.3v16.9h-1.3V.3Z"/>
  </g>
</svg>