<?xml version="1.0" encoding="UTF-8"?>
<svg id="Layer_1" data-name="Layer 1" xmlns="http://www.w3.org/2000/svg" viewBox="0 0 141.1 17.4">
  <defs>
    <style>
      .cls-1 {
        fill: #231f20;
      }
    </style>
  </defs>
  <path class="cls-1" d="M9.8.3h1.3v11.1L21.8.3h1.7l-7.4,7.4,7.7,9.4h-1.6l-6.9-8.5-4.2,4.2v4.3h-1.3V.3Z"/>
  <path class="cls-1" d="M25.2,8.8h0c0-4.7,3.4-8.8,8.5-8.8s8.5,4.1,8.5,8.7h0c0,4.7-3.4,8.8-8.5,8.8s-8.4-4.1-8.4-8.7ZM40.8,8.8h0c0-4.2-3-7.6-7.2-7.6s-7.1,3.4-7.1,7.5h0c0,4.2,3,7.6,7.2,7.6s7.1-3.4,7.1-7.5Z"/>
  <path class="cls-1" d="M46.4.3h1.2l11.6,14.7V.3h1.2v16.9h-.9l-11.9-15v15h-1.2V.3Z"/>
  <path class="cls-1" d="M69.8,1.4h-5.9V.3h13v1.2h-5.9v15.7h-1.3V1.4Z"/>
  <path class="cls-1" d="M84.5.2h1.2l7.8,17h-1.4l-2.1-4.7h-9.9l-2.1,4.7h-1.3L84.5.2ZM89.5,11.3l-4.4-9.7-4.5,9.7h8.9Z"/>
  <path class="cls-1" d="M97,.3h1.3v11.1L109,.3h1.7l-7.4,7.4,7.7,9.4h-1.6l-6.9-8.5-4.2,4.2v4.3h-1.3V.3Z"/>
  <path class="cls-1" d="M119.3,1.4h-5.9V.3h13v1.2h-5.9v15.7h-1.3V1.4Z"/>
  <path class="cls-1" d="M130,.3h1.3v16.9h-1.3V.3Z"/>
</svg>