<?xml version="1.0" encoding="UTF-8"?>
<svg id="Layer_1" data-name="Layer 1" xmlns="http://www.w3.org/2000/svg" viewBox="0 0 137.9 17.4">
  <defs>
    <style>
      .cls-1 {
        fill: #231f20;
      }

      .cls-2 {
        fill: #f3c02d;
      }
    </style>
  </defs>
  <rect class="cls-2" x="0" y="7.5" width="137.9" height="2.4"/>
  <g>
    <path class="cls-1" d="M10,.3h6.1c3.7,0,6.3,1.9,6.3,5.2h0c0,3.6-3,5.4-6.6,5.4h-4.5v6.3h-1.3V.3ZM15.8,9.8c3.1,0,5.2-1.6,5.2-4.1h0c0-2.7-2.1-4.1-5.1-4.1h-4.8v8.3h4.6Z"/>
    <path class="cls-1" d="M30.7.2h1.2l7.8,17h-1.4l-2.1-4.7h-9.9l-2.1,4.7h-1.3L30.7.2ZM35.7,11.4L31.3,1.6l-4.5,9.7h8.9Z"/>
    <path class="cls-1" d="M43.2.3h7.1c2.1,0,3.7.6,4.7,1.7.8.8,1.3,1.9,1.3,3.1h0c0,2.9-2.1,4.5-4.9,4.9l5.6,7.2h-1.6l-5.4-7h-5.5v7h-1.3V.3ZM50.1,9.1c2.8,0,4.9-1.4,4.9-3.9h0c0-2.3-1.8-3.7-4.8-3.7h-5.8v7.6h5.7Z"/>
    <path class="cls-1" d="M67.8.3h1.2l6.8,10L82.5.3h1.2v16.9h-1.3V2.6l-6.7,9.7h0l-6.7-9.7v14.6h-1.2V.3Z"/>
    <path class="cls-1" d="M95,.2h1.2l7.8,17h-1.4l-2.1-4.7h-9.9l-2.1,4.7h-1.3L95,.2ZM100,11.4l-4.4-9.7-4.5,9.7h8.9Z"/>
    <path class="cls-1" d="M107.5.3h1.2l11.6,14.7V.3h1.2v16.9h-.9l-11.9-15v15h-1.2V.3Z"/>
    <path class="cls-1" d="M126.7.3h1.3v16.9h-1.3V.3Z"/>
  </g>
</svg>