<?xml version="1.0" encoding="UTF-8"?>
<svg id="Layer_1" data-name="Layer 1" xmlns="http://www.w3.org/2000/svg" viewBox="0 0 64.7 17.2">
  <path d="M8.1.3h11.9v1.1h-10.6v6.5h9.5v1.1h-9.5v6.7h10.7v1.1h-12V.3Z"/>
  <path d="M23.6.3h1.2l11.5,14.5V.3h1.2v16.7h-.9L24.8,2.1v14.8h-1.2V.3Z"/>
  <path d="M41.7,8.7h0c0-4.5,3.3-8.7,8.2-8.7s4.4.8,6.1,2.2l-.8.9c-1.3-1.1-2.9-2-5.4-2-4.1,0-6.9,3.4-6.9,7.5h0c0,4.4,2.7,7.6,7.1,7.6s4.1-.9,5.3-1.9v-4.8h-5.6v-1.1h6.8v6.4c-1.5,1.3-3.8,2.5-6.5,2.5-5.3,0-8.4-3.9-8.4-8.6Z"/>
</svg>